# xmcd
#
# Track frame offsets: 
#        150
#        22264
#        44711
#        67976
#        86193
#        104660
#        123244
#        142621
#        169265
#        188920
#        209206
#        227427
#
# Disc length: 3299 seconds
#
# Revision: 0
# Processed by: cddbd v1.5.2PL0 Copyright (c) Steve Scherf et al.
# Submitted via: ExactAudioCopyFreeDBPlugin 1.0
#
DISCID=b10ce10c
DTITLE=馬小倩 - 馬小倩-落花
DYEAR=1900
DGENRE=中文流行曲
TTITLE0=落花
TTITLE1=花好月圆
TTITLE2=别问我是谁
TTITLE3=女人心
TTITLE4=一直很安静
TTITLE5=女人的眼泪
TTITLE6=阿信的故事
TTITLE7=哭砂
TTITLE8=采茶舞曲
TTITLE9=夜机
TTITLE10=千千闕歌
TTITLE11=化蝶
EXTD=
EXTT0=
EXTT1=
EXTT2=
EXTT3=
EXTT4=
EXTT5=
EXTT6=
EXTT7=
EXTT8=
EXTT9=
EXTT10=
EXTT11=
PLAYORDER=
